<svg xmlns="http://www.w3.org/2000/svg" version="1.1" xmlns:xlink="http://www.w3.org/1999/xlink" viewBox="0 0 200 200"><rect width="200" height="200" fill="url('#gradient')"></rect><defs><linearGradient id="gradient" gradientTransform="rotate(0 0.5 0.5)"><stop offset="0%" stop-color="#c8512e"></stop><stop offset="100%" stop-color="#445272"></stop></linearGradient></defs><g><g fill="#ceaa96" transform="matrix(1.9290423861852433,0,0,1.9290423861852433,31.93065327546286,113.71974930231762)" stroke="#c8512e" stroke-width="0"><path d="M10.03-8.30L10.03-5.66L4.50-5.66L4.50 0L1.07 0L1.07-14.22L10.59-14.22L10.59-11.57L4.50-11.57L4.50-8.30L10.03-8.30ZM18.29-7.40L18.29-4.85L12.42-4.85L12.42-7.40L18.29-7.40ZM29.10-4.81L32.51-4.81Q32.44-3.33 31.71-2.19Q30.98-1.05 29.65-0.43Q28.33 0.20 26.63 0.20L26.63 0.20Q23.83 0.20 22.22-1.63Q20.61-3.46 20.61-6.79L20.61-6.79L20.61-7.49Q20.61-9.58 21.33-11.15Q22.06-12.71 23.43-13.57Q24.79-14.42 26.59-14.42L26.59-14.42Q29.18-14.42 30.75-13.06Q32.32-11.70 32.54-9.31L32.54-9.31L29.12-9.31Q29.08-10.61 28.47-11.17Q27.85-11.74 26.59-11.74L26.59-11.74Q25.31-11.74 24.72-10.78Q24.12-9.82 24.09-7.72L24.09-7.72L24.09-6.72Q24.09-4.44 24.66-3.47Q25.23-2.49 26.63-2.49L26.63-2.49Q27.81-2.49 28.44-3.05Q29.06-3.60 29.10-4.81L29.10-4.81ZM43.04 0L42.21-2.66L37.51-2.66L36.69 0L33.03 0L38.24-14.22L41.46-14.22L46.72 0L43.04 0ZM39.85-10.23L38.33-5.30L41.39-5.30L39.85-10.23ZM51.18-14.22L51.18-2.64L57.15-2.64L57.15 0L47.75 0L47.75-14.22L51.18-14.22ZM66.06-4.81L69.47-4.81Q69.40-3.33 68.67-2.19Q67.94-1.05 66.62-0.43Q65.29 0.20 63.59 0.20L63.59 0.20Q60.79 0.20 59.18-1.63Q57.57-3.46 57.57-6.79L57.57-6.79L57.57-7.49Q57.57-9.58 58.30-11.15Q59.02-12.71 60.39-13.57Q61.76-14.42 63.55-14.42L63.55-14.42Q66.14-14.42 67.71-13.06Q69.29-11.70 69.50-9.31L69.50-9.31L66.08-9.31Q66.04-10.61 65.43-11.17Q64.81-11.74 63.55-11.74L63.55-11.74Q62.28-11.74 61.68-10.78Q61.08-9.82 61.05-7.72L61.05-7.72L61.05-6.72Q61.05-4.44 61.63-3.47Q62.20-2.49 63.59-2.49L63.59-2.49Q64.78-2.49 65.40-3.05Q66.03-3.60 66.06-4.81L66.06-4.81Z"></path></g></g></svg>